<?xml version="1.0" encoding="utf-8"?>
<!-- Generator: Adobe Illustrator 26.0.2, SVG Export Plug-In . SVG Version: 6.00 Build 0)  -->
<svg version="1.1" id="Layer_1" xmlns="http://www.w3.org/2000/svg" xmlns:xlink="http://www.w3.org/1999/xlink" x="0px" y="0px"
	 viewBox="0 0 841.89 595.28" style="enable-background:new 0 0 841.89 595.28;" xml:space="preserve">
<style type="text/css">
	.st0{fill:#47574D;}
	.st1{fill:#B19A73;}
</style>
<g>
	<path class="st0" d="M309.39,396.75h-15.88v-1.6c0.74-0.05,1.61-0.18,2.61-0.39c1-0.22,1.5-0.49,1.5-0.8
		c0-0.11-0.01-0.23-0.04-0.37c-0.01-0.14-0.07-0.32-0.16-0.55l-2.49-6.04h-10.07c-0.23,0.56-0.49,1.22-0.78,1.97
		c-0.27,0.75-0.51,1.42-0.72,2.01c-0.26,0.77-0.42,1.32-0.47,1.66c-0.04,0.34-0.06,0.58-0.06,0.72c0,0.44,0.33,0.81,0.99,1.13
		c0.67,0.3,1.78,0.52,3.33,0.66v1.6h-11.96v-1.6c0.45-0.03,0.96-0.1,1.52-0.21c0.58-0.12,1.03-0.29,1.36-0.49
		c0.56-0.33,1.03-0.73,1.42-1.21c0.4-0.48,0.73-1.05,0.99-1.7c1.59-3.85,3.18-7.7,4.77-11.57c1.6-3.86,3.37-8.12,5.3-12.78h4.11
		c2.68,6.6,4.79,11.82,6.31,15.65c1.52,3.83,2.81,7.01,3.88,9.53c0.18,0.41,0.4,0.79,0.68,1.13c0.27,0.33,0.66,0.64,1.17,0.95
		c0.38,0.22,0.83,0.38,1.34,0.49c0.51,0.11,0.97,0.18,1.38,0.21V396.75z M294.08,384.96l-4.23-10.56l-4.17,10.56H294.08z"/>
	<path class="st0" d="M337.1,387.41l-0.57,9.35h-26.85v-1.6c0.48-0.04,1.04-0.1,1.68-0.18c0.64-0.1,1.07-0.18,1.27-0.27
		c0.49-0.19,0.84-0.46,1.03-0.8c0.19-0.34,0.29-0.78,0.29-1.31v-20.56c0-0.49-0.08-0.9-0.23-1.21c-0.15-0.33-0.51-0.62-1.09-0.88
		c-0.42-0.19-0.94-0.34-1.54-0.45c-0.59-0.12-1.06-0.21-1.42-0.27v-1.6h16v1.6c-0.44,0.04-0.96,0.1-1.56,0.18
		c-0.59,0.07-1.1,0.17-1.54,0.31c-0.53,0.18-0.89,0.46-1.07,0.84c-0.18,0.37-0.27,0.79-0.27,1.27v19.17c0,0.9,0.06,1.62,0.18,2.14
		s0.36,0.9,0.72,1.15c0.36,0.26,0.85,0.43,1.48,0.51c0.64,0.07,1.53,0.1,2.65,0.1c1.1,0,2.16-0.06,3.18-0.18
		c1.04-0.14,1.79-0.42,2.24-0.86c0.7-0.7,1.41-1.68,2.14-2.94c0.74-1.27,1.33-2.44,1.77-3.49H337.1z"/>
	<path class="st0" d="M365.61,375.94h-1.58c-0.42-1.25-1.11-2.58-2.05-4.01c-0.93-1.42-1.79-2.19-2.59-2.3
		c-0.44-0.05-0.98-0.1-1.62-0.14c-0.64-0.04-1.2-0.06-1.66-0.06h-0.97v22.86c0,0.49,0.09,0.93,0.27,1.31
		c0.18,0.37,0.53,0.66,1.05,0.88c0.32,0.12,0.8,0.25,1.46,0.39c0.67,0.12,1.24,0.21,1.7,0.27v1.6h-16.25v-1.6
		c0.4-0.04,0.95-0.1,1.66-0.16c0.73-0.08,1.22-0.18,1.48-0.29c0.53-0.22,0.89-0.51,1.07-0.88c0.18-0.37,0.27-0.81,0.27-1.31v-23.07
		h-0.97c-0.47,0-1.02,0.02-1.66,0.06c-0.64,0.04-1.18,0.09-1.62,0.14c-0.79,0.11-1.66,0.88-2.61,2.3c-0.93,1.42-1.61,2.76-2.03,4.01
		h-1.58v-8.34h28.25V375.94z"/>
	<path class="st0" d="M398.95,396.75h-15.88v-1.6c0.74-0.05,1.61-0.18,2.61-0.39c1-0.22,1.5-0.49,1.5-0.8
		c0-0.11-0.01-0.23-0.04-0.37c-0.01-0.14-0.07-0.32-0.16-0.55l-2.49-6.04h-10.07c-0.23,0.56-0.49,1.22-0.78,1.97
		c-0.27,0.75-0.51,1.42-0.72,2.01c-0.26,0.77-0.42,1.32-0.47,1.66c-0.04,0.34-0.06,0.58-0.06,0.72c0,0.44,0.33,0.81,0.99,1.13
		c0.67,0.3,1.78,0.52,3.33,0.66v1.6h-11.96v-1.6c0.45-0.03,0.96-0.1,1.52-0.21c0.58-0.12,1.03-0.29,1.36-0.49
		c0.56-0.33,1.03-0.73,1.42-1.21c0.4-0.48,0.73-1.05,0.99-1.7c1.59-3.85,3.18-7.7,4.77-11.57c1.6-3.86,3.37-8.12,5.3-12.78h4.11
		c2.68,6.6,4.79,11.82,6.31,15.65c1.52,3.83,2.81,7.01,3.88,9.53c0.18,0.41,0.4,0.79,0.68,1.13c0.27,0.33,0.66,0.64,1.17,0.95
		c0.38,0.22,0.83,0.38,1.34,0.49c0.51,0.11,0.97,0.18,1.38,0.21V396.75z M383.65,384.96l-4.23-10.56l-4.17,10.56H383.65z"/>
	<path class="st0" d="M439.3,396.75h-15.8v-1.6c0.47-0.04,1.03-0.11,1.71-0.21c0.68-0.1,1.15-0.2,1.4-0.31
		c0.51-0.21,0.87-0.49,1.09-0.84c0.22-0.36,0.33-0.81,0.33-1.36v-21.77l-10.02,25.62h-2.59c-0.12-0.45-0.43-1.35-0.92-2.69
		c-0.48-1.34-0.87-2.42-1.17-3.23l-7.37-20.03v17.73c0,1.7,0.11,2.99,0.33,3.88c0.23,0.88,0.6,1.52,1.11,1.93
		c0.34,0.29,0.95,0.56,1.83,0.82c0.89,0.26,1.51,0.41,1.87,0.45v1.6h-12.53v-1.6c0.34-0.04,0.9-0.13,1.66-0.27
		c0.78-0.15,1.42-0.4,1.91-0.76c0.55-0.38,0.92-1.03,1.11-1.93c0.19-0.92,0.29-2.22,0.29-3.9v-14.44c0-0.88-0.11-1.6-0.33-2.18
		c-0.22-0.59-0.55-1.05-0.99-1.4c-0.55-0.42-1.11-0.7-1.68-0.82c-0.58-0.12-1.16-0.21-1.75-0.25v-1.6h13.41l7.19,19.25l6.06-15.63
		c0.21-0.58,0.4-1.26,0.6-2.05c0.19-0.79,0.29-1.31,0.31-1.56h12.92v1.6c-0.44,0.03-0.9,0.08-1.38,0.16
		c-0.48,0.08-0.94,0.19-1.38,0.33c-0.53,0.18-0.89,0.46-1.07,0.84c-0.16,0.38-0.25,0.81-0.25,1.27v20.64c0,0.49,0.08,0.91,0.25,1.25
		c0.18,0.33,0.53,0.62,1.07,0.86c0.27,0.12,0.72,0.24,1.34,0.35c0.63,0.11,1.12,0.18,1.46,0.23V396.75z"/>
	<path class="st0" d="M469.23,370.85c1.44,1.31,2.57,2.9,3.41,4.77c0.85,1.86,1.27,3.99,1.27,6.37c0,2.12-0.36,4.14-1.07,6.06
		c-0.71,1.92-1.74,3.57-3.08,4.95c-1.41,1.44-3.07,2.56-4.97,3.37c-1.9,0.79-4.17,1.19-6.8,1.19c-2.12,0-4.13-0.35-6.02-1.05
		c-1.89-0.7-3.55-1.71-4.99-3.04c-1.42-1.3-2.55-2.88-3.39-4.75c-0.84-1.86-1.25-3.94-1.25-6.22c0-2.38,0.4-4.54,1.21-6.47
		c0.82-1.94,1.94-3.61,3.37-4.99c1.41-1.36,3.08-2.4,5.01-3.12c1.94-0.74,4.01-1.11,6.2-1.11c2.18,0,4.22,0.36,6.12,1.07
		C466.17,368.58,467.83,369.58,469.23,370.85z M463.95,391.7c0.62-1.25,1.06-2.66,1.34-4.23c0.27-1.58,0.41-3.36,0.41-5.34
		c0-1.68-0.12-3.32-0.37-4.91c-0.23-1.6-0.64-3.03-1.21-4.27c-0.59-1.25-1.37-2.25-2.34-3c-0.97-0.75-2.18-1.13-3.64-1.13
		c-2.48,0-4.36,1.18-5.65,3.53c-1.29,2.34-1.93,5.66-1.93,9.94c0,1.82,0.14,3.54,0.41,5.16c0.29,1.62,0.73,3.03,1.34,4.23
		c0.62,1.22,1.4,2.17,2.34,2.86c0.95,0.67,2.11,1.01,3.49,1.01c1.36,0,2.52-0.34,3.49-1.03C462.6,393.83,463.37,392.89,463.95,391.7
		z"/>
	<path class="st0" d="M510.29,369.21c-0.38,0.04-0.93,0.12-1.64,0.23c-0.71,0.11-1.36,0.38-1.93,0.8c-0.51,0.37-0.87,1.01-1.09,1.91
		c-0.21,0.89-0.31,2.2-0.31,3.94v20.83h-3.66l-18.16-22.53v13.68c0,1.7,0.11,2.99,0.33,3.88c0.23,0.88,0.6,1.52,1.11,1.93
		c0.37,0.3,0.96,0.57,1.77,0.8c0.81,0.23,1.45,0.39,1.93,0.47v1.6h-12.53v-1.6c0.53-0.04,1.14-0.14,1.83-0.29
		c0.7-0.16,1.28-0.41,1.75-0.74c0.53-0.4,0.9-0.99,1.09-1.79c0.21-0.81,0.31-2.16,0.31-4.05v-13.8c0-0.68-0.11-1.33-0.33-1.93
		c-0.21-0.62-0.53-1.14-0.99-1.58c-0.48-0.47-1.03-0.83-1.66-1.09c-0.62-0.27-1.32-0.49-2.12-0.64v-1.64h10.97l15.94,19.72v-11.03
		c0-1.75-0.12-3.05-0.35-3.9c-0.23-0.86-0.6-1.5-1.11-1.91c-0.4-0.32-0.99-0.58-1.77-0.8c-0.78-0.23-1.41-0.39-1.89-0.47v-1.6h12.51
		V369.21z"/>
	<path class="st0" d="M539.23,375.94h-1.58c-0.42-1.25-1.11-2.58-2.05-4.01c-0.93-1.42-1.8-2.19-2.59-2.3
		c-0.44-0.05-0.98-0.1-1.62-0.14c-0.64-0.04-1.2-0.06-1.66-0.06h-0.97v22.86c0,0.49,0.09,0.93,0.27,1.31
		c0.18,0.37,0.53,0.66,1.05,0.88c0.31,0.12,0.8,0.25,1.46,0.39c0.67,0.12,1.24,0.21,1.7,0.27v1.6h-16.25v-1.6
		c0.4-0.04,0.95-0.1,1.66-0.16c0.73-0.08,1.22-0.18,1.48-0.29c0.53-0.22,0.89-0.51,1.07-0.88s0.27-0.81,0.27-1.31v-23.07h-0.97
		c-0.47,0-1.02,0.02-1.66,0.06c-0.64,0.04-1.18,0.09-1.62,0.14c-0.79,0.11-1.66,0.88-2.61,2.3c-0.93,1.42-1.61,2.76-2.03,4.01h-1.58
		v-8.34h28.25V375.94z"/>
	<path class="st0" d="M566.78,375.04h-1.56c-0.4-1.11-1.08-2.23-2.05-3.37c-0.97-1.14-1.94-1.81-2.9-2.01
		c-0.41-0.1-0.99-0.15-1.73-0.16c-0.73-0.03-1.33-0.04-1.81-0.04h-4.23v11.26h3c0.75,0,1.44-0.09,2.05-0.27
		c0.62-0.18,1.18-0.52,1.69-1.03c0.31-0.32,0.63-0.87,0.94-1.66c0.33-0.79,0.54-1.49,0.64-2.07h1.56v12.16h-1.56
		c-0.08-0.57-0.29-1.29-0.64-2.16c-0.33-0.88-0.64-1.48-0.94-1.81c-0.45-0.49-0.99-0.83-1.6-1.01c-0.62-0.19-1.33-0.29-2.14-0.29h-3
		v8.4c0,0.88,0.06,1.57,0.19,2.1c0.14,0.51,0.38,0.9,0.74,1.17c0.34,0.26,0.81,0.43,1.39,0.51c0.6,0.08,1.42,0.12,2.45,0.12
		c0.48,0,1.06-0.01,1.72-0.02c0.67-0.01,1.26-0.05,1.77-0.12c0.58-0.07,1.11-0.17,1.6-0.31c0.5-0.14,0.88-0.34,1.13-0.6
		c0.66-0.67,1.4-1.69,2.22-3.06c0.82-1.38,1.36-2.42,1.62-3.1h1.5l-0.56,9.08h-27.34v-1.6c0.38-0.03,0.91-0.08,1.56-0.16
		c0.66-0.08,1.12-0.18,1.4-0.29c0.52-0.22,0.87-0.49,1.05-0.82c0.18-0.34,0.27-0.77,0.27-1.29v-20.56c0-0.49-0.08-0.9-0.23-1.21
		c-0.15-0.33-0.51-0.62-1.09-0.88c-0.36-0.16-0.86-0.32-1.5-0.45c-0.64-0.14-1.13-0.23-1.46-0.27v-1.6h25.84V375.04z"/>
</g>
<g>
	<path class="st1" d="M330.72,424.28c0,1.68-0.32,3.14-0.95,4.37c-0.63,1.23-1.45,2.25-2.46,3.03c-1.02,0.79-2.17,1.38-3.44,1.77
		c-1.27,0.39-2.58,0.58-3.94,0.58h-8.19v-0.99c0.27,0,0.62-0.02,1.04-0.07c0.44-0.06,0.72-0.12,0.86-0.18
		c0.28-0.12,0.48-0.3,0.6-0.53c0.13-0.24,0.2-0.53,0.2-0.86v-14.25c0-0.32-0.06-0.6-0.17-0.85c-0.1-0.25-0.31-0.45-0.63-0.6
		c-0.29-0.14-0.6-0.24-0.93-0.31c-0.33-0.06-0.62-0.11-0.86-0.12v-0.99h8.63c1.19,0,2.36,0.19,3.51,0.56
		c1.15,0.36,2.15,0.85,3.01,1.48c1.16,0.83,2.07,1.91,2.73,3.24S330.72,422.47,330.72,424.28z M327.31,424.27
		c0-1.33-0.18-2.52-0.53-3.59c-0.35-1.08-0.87-2.01-1.55-2.81c-0.64-0.76-1.43-1.36-2.37-1.8c-0.93-0.44-1.96-0.65-3.1-0.65
		c-0.38,0-0.81,0.01-1.29,0.03c-0.47,0.01-0.83,0.02-1.06,0.03v15.19c0,0.84,0.25,1.43,0.74,1.75c0.49,0.32,1.25,0.49,2.27,0.49
		c1.18,0,2.21-0.21,3.09-0.63c0.88-0.42,1.6-1,2.14-1.74c0.58-0.78,0.99-1.68,1.25-2.7C327.17,426.8,327.31,425.61,327.31,424.27z"
		/>
	<path class="st1" d="M349.76,428.22l-0.38,5.82h-16.4v-0.99c0.28-0.02,0.65-0.06,1.11-0.11c0.46-0.07,0.77-0.13,0.9-0.19
		c0.3-0.14,0.5-0.32,0.61-0.54c0.12-0.22,0.18-0.51,0.18-0.85v-14.2c0-0.31-0.05-0.58-0.15-0.81c-0.1-0.24-0.32-0.44-0.64-0.58
		c-0.25-0.12-0.59-0.23-1.02-0.32c-0.42-0.09-0.75-0.15-1-0.17v-0.99h15.28v4.76h-1.04c-0.19-0.71-0.59-1.45-1.21-2.24
		c-0.61-0.8-1.2-1.23-1.75-1.31c-0.29-0.04-0.63-0.07-1.03-0.08c-0.4-0.02-0.85-0.03-1.36-0.03h-3.1v7.85h2.23
		c0.71,0,1.23-0.07,1.56-0.19c0.33-0.14,0.63-0.37,0.88-0.68c0.2-0.27,0.38-0.63,0.51-1.07c0.15-0.45,0.25-0.88,0.29-1.28h1.04v7.73
		h-1.04c-0.04-0.45-0.14-0.91-0.31-1.41c-0.16-0.5-0.32-0.86-0.5-1.09c-0.29-0.36-0.62-0.6-0.99-0.71
		c-0.36-0.11-0.84-0.17-1.45-0.17h-2.23v5.93c0,0.59,0.04,1.06,0.13,1.41c0.08,0.34,0.25,0.6,0.49,0.78
		c0.24,0.18,0.57,0.29,0.99,0.35c0.42,0.05,1.01,0.07,1.78,0.07c0.31,0,0.71,0,1.21,0s0.92-0.02,1.27-0.06
		c0.35-0.04,0.71-0.1,1.09-0.19c0.38-0.1,0.65-0.24,0.81-0.4c0.43-0.45,0.87-1.12,1.34-2.02c0.47-0.91,0.78-1.58,0.9-2H349.76z"/>
	<path class="st1" d="M371.02,434.04h-5.32c-1.18-1.85-2.25-3.44-3.2-4.79c-0.95-1.35-1.98-2.73-3.09-4.16h-2.02v6.26
		c0,0.32,0.05,0.61,0.15,0.86c0.1,0.24,0.32,0.43,0.65,0.56c0.17,0.07,0.46,0.13,0.88,0.18c0.42,0.06,0.77,0.09,1.06,0.1v0.99h-8.35
		v-0.99c0.22-0.02,0.54-0.05,0.96-0.1c0.43-0.05,0.72-0.11,0.89-0.18c0.28-0.12,0.48-0.3,0.6-0.53c0.13-0.23,0.19-0.53,0.19-0.89
		v-14.28c0-0.32-0.05-0.61-0.14-0.86c-0.09-0.25-0.31-0.44-0.65-0.57c-0.23-0.08-0.53-0.16-0.9-0.22c-0.37-0.07-0.69-0.12-0.95-0.14
		v-0.99h9.12c0.84,0,1.62,0.09,2.35,0.26c0.73,0.17,1.4,0.44,1.99,0.82c0.58,0.37,1.03,0.86,1.38,1.46
		c0.34,0.59,0.51,1.31,0.51,2.16c0,0.76-0.12,1.43-0.35,2.02c-0.23,0.58-0.58,1.09-1.03,1.52c-0.42,0.4-0.92,0.75-1.5,1.04
		c-0.58,0.29-1.23,0.53-1.94,0.74c0.97,1.29,1.78,2.38,2.42,3.26c0.65,0.88,1.44,1.95,2.38,3.22c0.41,0.56,0.77,0.97,1.1,1.24
		c0.33,0.26,0.66,0.47,0.99,0.64c0.24,0.12,0.54,0.21,0.9,0.28c0.36,0.07,0.66,0.1,0.9,0.11V434.04z M363.7,419.31
		c0-1.2-0.34-2.14-1.03-2.84c-0.69-0.71-1.66-1.06-2.91-1.06h-2.37v8.48h1.82c1.28,0,2.35-0.41,3.2-1.23
		C363.27,421.84,363.7,420.72,363.7,419.31z"/>
	<path class="st1" d="M395.58,434.04h-8.73v-0.99c0.32-0.01,0.72-0.04,1.21-0.1c0.5-0.06,0.84-0.13,1.03-0.24
		c0.29-0.18,0.5-0.38,0.63-0.6c0.14-0.23,0.21-0.52,0.21-0.86v-14.37h-0.21l-6.74,16.83h-0.7l-6.42-17.18h-0.18v11.79
		c0,1.14,0.07,2.01,0.21,2.6c0.15,0.59,0.37,1.02,0.67,1.28c0.2,0.2,0.63,0.38,1.27,0.56c0.64,0.18,1.06,0.27,1.25,0.28v0.99h-7.98
		v-0.99c0.42-0.04,0.85-0.11,1.31-0.21c0.46-0.1,0.82-0.26,1.07-0.46c0.32-0.26,0.55-0.66,0.67-1.2c0.12-0.54,0.18-1.44,0.18-2.7
		v-10.11c0-0.58-0.07-1.06-0.21-1.43c-0.14-0.37-0.34-0.67-0.6-0.9c-0.29-0.25-0.64-0.44-1.06-0.56c-0.42-0.12-0.83-0.19-1.24-0.21
		v-0.99h6.74l5.65,14.81l4.83-12.39c0.18-0.45,0.32-0.93,0.45-1.42c0.13-0.5,0.2-0.84,0.21-1h6.45v0.99c-0.26,0.01-0.59,0.05-1,0.12
		c-0.4,0.07-0.69,0.14-0.88,0.21c-0.32,0.11-0.53,0.3-0.64,0.56c-0.11,0.26-0.17,0.54-0.17,0.85v14.24c0,0.32,0.06,0.6,0.17,0.82
		c0.11,0.22,0.32,0.42,0.64,0.58c0.17,0.09,0.46,0.18,0.89,0.26c0.43,0.07,0.77,0.12,1.02,0.13V434.04z"/>
	<path class="st1" d="M416.66,434.04h-8.23v-0.99c0.72-0.05,1.32-0.14,1.8-0.28c0.48-0.14,0.72-0.31,0.72-0.51
		c0-0.08-0.01-0.19-0.03-0.31c-0.02-0.12-0.05-0.23-0.08-0.32l-1.64-4.43h-6.92c-0.26,0.65-0.47,1.22-0.64,1.7
		c-0.16,0.48-0.3,0.93-0.43,1.34c-0.12,0.4-0.2,0.72-0.25,0.97c-0.05,0.25-0.07,0.46-0.07,0.61c0,0.37,0.29,0.66,0.88,0.86
		c0.58,0.2,1.24,0.32,1.98,0.36v0.99h-7.43v-0.99c0.24-0.02,0.54-0.07,0.9-0.15c0.36-0.09,0.66-0.21,0.89-0.36
		c0.37-0.25,0.66-0.51,0.86-0.78c0.2-0.28,0.4-0.66,0.6-1.14c0.99-2.48,2.09-5.26,3.29-8.35c1.2-3.09,2.26-5.84,3.2-8.25h1.11
		l6.58,17.04c0.14,0.36,0.3,0.65,0.47,0.88c0.18,0.22,0.42,0.44,0.74,0.65c0.21,0.13,0.49,0.24,0.84,0.33
		c0.34,0.08,0.63,0.13,0.86,0.14V434.04z M408.7,425.97l-2.99-7.66l-2.94,7.66H408.7z"/>
	<path class="st1" d="M433.43,419.65h-0.96c-0.08-0.33-0.24-0.73-0.46-1.18c-0.21-0.46-0.46-0.9-0.72-1.31
		c-0.28-0.43-0.58-0.8-0.92-1.11c-0.32-0.32-0.64-0.51-0.95-0.56c-0.29-0.04-0.65-0.06-1.09-0.08c-0.44-0.02-0.84-0.03-1.21-0.03
		h-0.81v15.8c0,0.31,0.06,0.59,0.19,0.85c0.13,0.25,0.36,0.45,0.68,0.58c0.17,0.07,0.51,0.15,1.04,0.26
		c0.54,0.11,0.96,0.17,1.25,0.18v0.99h-9.33v-0.99c0.26-0.02,0.65-0.06,1.18-0.11c0.54-0.06,0.91-0.13,1.11-0.21
		c0.31-0.12,0.53-0.29,0.67-0.52c0.15-0.23,0.22-0.54,0.22-0.92v-15.93h-0.81c-0.29,0-0.65,0.01-1.07,0.03
		c-0.43,0.01-0.84,0.04-1.23,0.08c-0.31,0.04-0.63,0.22-0.96,0.56c-0.32,0.32-0.63,0.7-0.9,1.11c-0.28,0.42-0.52,0.86-0.74,1.34
		c-0.21,0.46-0.36,0.85-0.45,1.16h-0.97v-5.36h17.21V419.65z"/>
	<path class="st1" d="M450.98,416.63c0.87,0.91,1.55,2.01,2.05,3.3c0.49,1.28,0.74,2.7,0.74,4.26c0,1.57-0.25,2.99-0.75,4.27
		c-0.5,1.28-1.2,2.37-2.09,3.27c-0.86,0.89-1.87,1.58-3.01,2.06c-1.14,0.48-2.36,0.72-3.65,0.72c-1.37,0-2.64-0.26-3.81-0.77
		c-1.16-0.52-2.16-1.24-2.99-2.16c-0.84-0.9-1.49-1.99-1.98-3.27c-0.47-1.29-0.71-2.67-0.71-4.13c0-1.61,0.25-3.03,0.75-4.29
		c0.5-1.26,1.19-2.35,2.07-3.27c0.87-0.91,1.88-1.61,3.03-2.09c1.16-0.48,2.37-0.72,3.63-0.72c1.31,0,2.54,0.25,3.7,0.74
		C449.13,415.04,450.13,415.73,450.98,416.63z M448.9,430.63c0.52-0.84,0.9-1.8,1.13-2.87c0.24-1.07,0.36-2.26,0.36-3.58
		c0-1.36-0.13-2.6-0.4-3.73c-0.26-1.13-0.65-2.1-1.16-2.9c-0.51-0.79-1.15-1.4-1.92-1.84c-0.77-0.45-1.65-0.67-2.65-0.67
		c-1.11,0-2.06,0.26-2.84,0.77c-0.78,0.51-1.42,1.19-1.91,2.05c-0.46,0.82-0.81,1.77-1.04,2.87c-0.22,1.09-0.33,2.25-0.33,3.45
		c0,1.34,0.12,2.54,0.36,3.62c0.24,1.08,0.62,2.03,1.14,2.87c0.5,0.82,1.13,1.46,1.89,1.92c0.76,0.45,1.67,0.68,2.73,0.68
		c0.99,0,1.89-0.23,2.69-0.7C447.75,432.11,448.4,431.46,448.9,430.63z"/>
	<path class="st1" d="M472.1,428.17l-0.42,5.87h-15.44v-0.99c0.22-0.02,0.54-0.05,0.96-0.1c0.43-0.05,0.72-0.11,0.89-0.18
		c0.28-0.12,0.48-0.3,0.6-0.53c0.13-0.23,0.2-0.53,0.2-0.89v-14.14c0-0.32-0.06-0.59-0.17-0.84c-0.1-0.24-0.31-0.44-0.63-0.58
		c-0.21-0.11-0.51-0.22-0.9-0.32c-0.38-0.11-0.7-0.18-0.95-0.19v-0.99h8.34v0.99c-0.26,0.01-0.6,0.06-1.02,0.14
		c-0.41,0.08-0.71,0.16-0.89,0.22c-0.32,0.11-0.53,0.3-0.65,0.57c-0.11,0.27-0.17,0.56-0.17,0.86v13.27c0,0.61,0.03,1.09,0.08,1.43
		c0.07,0.33,0.21,0.59,0.43,0.78c0.21,0.17,0.53,0.28,0.95,0.33c0.43,0.05,1.02,0.07,1.78,0.07c0.34,0,0.7-0.01,1.07-0.03
		c0.37-0.02,0.72-0.06,1.06-0.11c0.32-0.06,0.62-0.13,0.89-0.22c0.28-0.1,0.48-0.23,0.61-0.38c0.38-0.43,0.82-1.07,1.32-1.93
		c0.51-0.87,0.86-1.58,1.06-2.12H472.1z"/>
	<path class="st1" d="M489.4,416.63c0.87,0.91,1.55,2.01,2.05,3.3c0.49,1.28,0.74,2.7,0.74,4.26c0,1.57-0.25,2.99-0.75,4.27
		c-0.5,1.28-1.2,2.37-2.09,3.27c-0.86,0.89-1.87,1.58-3.01,2.06c-1.14,0.48-2.36,0.72-3.65,0.72c-1.37,0-2.64-0.26-3.81-0.77
		c-1.16-0.52-2.16-1.24-2.99-2.16c-0.84-0.9-1.49-1.99-1.98-3.27c-0.47-1.29-0.71-2.67-0.71-4.13c0-1.61,0.25-3.03,0.75-4.29
		c0.5-1.26,1.19-2.35,2.07-3.27c0.87-0.91,1.88-1.61,3.03-2.09c1.16-0.48,2.37-0.72,3.63-0.72c1.31,0,2.54,0.25,3.7,0.74
		C487.55,415.04,488.56,415.73,489.4,416.63z M487.33,430.63c0.52-0.84,0.9-1.8,1.13-2.87c0.24-1.07,0.36-2.26,0.36-3.58
		c0-1.36-0.13-2.6-0.4-3.73c-0.26-1.13-0.65-2.1-1.16-2.9c-0.51-0.79-1.15-1.4-1.92-1.84c-0.77-0.45-1.65-0.67-2.64-0.67
		c-1.11,0-2.06,0.26-2.84,0.77c-0.78,0.51-1.42,1.19-1.91,2.05c-0.46,0.82-0.81,1.77-1.04,2.87c-0.22,1.09-0.33,2.25-0.33,3.45
		c0,1.34,0.12,2.54,0.36,3.62c0.24,1.08,0.62,2.03,1.14,2.87c0.5,0.82,1.13,1.46,1.89,1.92c0.76,0.45,1.67,0.68,2.73,0.68
		c0.99,0,1.89-0.23,2.69-0.7C486.18,432.11,486.82,431.46,487.33,430.63z"/>
	<path class="st1" d="M513.77,426.15c-0.22,0.03-0.52,0.07-0.9,0.14c-0.37,0.06-0.67,0.14-0.9,0.25c-0.28,0.14-0.48,0.34-0.6,0.6
		c-0.11,0.25-0.17,0.55-0.17,0.89v1.53c0,1.11,0,1.87,0.01,2.25c0.02,0.39,0.04,0.71,0.06,0.96c-1.23,0.56-2.46,0.98-3.69,1.28
		c-1.23,0.3-2.43,0.45-3.61,0.45c-1.26,0-2.48-0.24-3.65-0.71c-1.17-0.47-2.19-1.15-3.06-2.02c-0.88-0.88-1.58-1.95-2.1-3.22
		c-0.52-1.26-0.78-2.67-0.78-4.23c0-1.5,0.25-2.9,0.74-4.18c0.5-1.29,1.21-2.41,2.12-3.35c0.88-0.93,1.93-1.65,3.15-2.16
		c1.23-0.52,2.53-0.78,3.93-0.78c1.11,0,2.08,0.13,2.91,0.4c0.83,0.27,1.55,0.59,2.19,0.97l0.57-0.95h1.11l0.12,6.9h-1.14
		c-0.19-0.76-0.44-1.51-0.72-2.24c-0.29-0.74-0.66-1.41-1.11-1.99c-0.45-0.58-1.01-1.05-1.67-1.39c-0.65-0.35-1.43-0.53-2.34-0.53
		c-0.99,0-1.88,0.2-2.66,0.61c-0.78,0.4-1.46,1-2.03,1.8c-0.57,0.77-1,1.73-1.31,2.88c-0.31,1.15-0.46,2.44-0.46,3.86
		c0,1.25,0.15,2.44,0.45,3.55c0.31,1.1,0.75,2.06,1.32,2.87c0.58,0.83,1.29,1.48,2.16,1.95c0.86,0.47,1.84,0.71,2.94,0.71
		c0.82,0,1.56-0.13,2.23-0.38c0.68-0.25,1.16-0.51,1.43-0.79c0.07-0.48,0.11-0.97,0.11-1.46c0.01-0.49,0.01-0.91,0.01-1.25v-1.09
		c0-0.39-0.06-0.73-0.17-1.03c-0.1-0.31-0.32-0.53-0.65-0.67c-0.31-0.14-0.72-0.24-1.25-0.31c-0.52-0.07-0.93-0.12-1.23-0.14v-1.02
		h8.66V426.15z"/>
	<path class="st1" d="M532.28,415.28c-0.16,0.01-0.41,0.07-0.75,0.19c-0.34,0.11-0.59,0.22-0.74,0.33
		c-0.36,0.22-0.61,0.39-0.74,0.52c-0.13,0.12-0.38,0.44-0.75,0.95c-0.72,1.02-1.39,2.06-2,3.1c-0.61,1.05-1.38,2.38-2.3,4
		c-0.34,0.59-0.57,1.07-0.68,1.43c-0.11,0.36-0.17,0.89-0.17,1.57v3.77c0,0.33,0.07,0.63,0.19,0.88c0.14,0.24,0.37,0.44,0.7,0.58
		c0.2,0.07,0.54,0.17,1.04,0.28c0.5,0.1,0.9,0.16,1.21,0.17v0.99h-9.24v-0.99c0.26-0.02,0.65-0.05,1.17-0.1
		c0.52-0.06,0.88-0.12,1.09-0.21c0.33-0.14,0.56-0.33,0.68-0.57c0.13-0.24,0.2-0.54,0.2-0.89v-4.8c0-0.15-0.09-0.42-0.28-0.81
		c-0.18-0.4-0.39-0.84-0.64-1.32c-0.56-1.08-1.17-2.24-1.85-3.49c-0.68-1.25-1.27-2.32-1.77-3.22c-0.31-0.53-0.58-0.93-0.82-1.2
		c-0.23-0.27-0.5-0.51-0.81-0.71c-0.22-0.14-0.49-0.25-0.81-0.32c-0.31-0.07-0.58-0.12-0.84-0.14v-0.99h8.42v0.99
		c-0.95,0.02-1.61,0.08-2,0.19c-0.39,0.11-0.58,0.27-0.58,0.47c0,0.06,0.03,0.15,0.08,0.29c0.06,0.14,0.13,0.32,0.24,0.53
		c0.12,0.24,0.26,0.52,0.43,0.84c0.17,0.31,0.32,0.6,0.47,0.89c0.44,0.83,0.88,1.65,1.34,2.48c0.46,0.82,1.05,1.88,1.78,3.2
		c1.46-2.35,2.57-4.18,3.33-5.48c0.77-1.32,1.16-2.11,1.16-2.37c0-0.21-0.08-0.39-0.24-0.52c-0.16-0.13-0.37-0.23-0.63-0.31
		c-0.27-0.07-0.56-0.12-0.88-0.14c-0.32-0.03-0.61-0.06-0.88-0.08v-0.99h6.86V415.28z"/>
</g>
<g>
	<path class="st0" d="M422.59,204c0,0,14.15-17.47,0-33.3C422.59,170.69,404.87,183.14,422.59,204z"/>
	<path class="st0" d="M463.21,221.87c0,0,20.3,9.48,32.45-8.01C495.67,213.85,479.39,199.69,463.21,221.87z"/>
	<path class="st0" d="M449.07,271.59c0,0,19.89,1.04,23.93-17.41C473,254.17,454.86,248.05,449.07,271.59z"/>
	<path class="st0" d="M481.61,256.11c0,0,17.84,6.74,26.89-8.79C508.5,247.25,493.83,236.34,481.61,256.11z"/>
	<path class="st0" d="M453.2,242.85c0,0,15.4,5.2,22.74-8.35C475.94,234.5,462.95,225.6,453.2,242.85z"/>
	<path class="st0" d="M479.39,275.47c0,0,14.69,11.95,28.19,0C507.59,275.47,497.1,260.62,479.39,275.47z"/>
	<path class="st0" d="M473.72,295.87c0,0,10.77,11.72,23.51,3.66C497.2,299.57,490.4,285.71,473.72,295.87z"/>
	<path class="st0" d="M437.61,217.71c0,0,19.31-4.79,17.88-23.58C455.49,194.13,436.36,193.54,437.61,217.71z"/>
	<path class="st0" d="M380.82,222.03c0,0-20.47,9.48-32.51-8C348.31,214.03,364.59,199.87,380.82,222.03z"/>
	<path class="st0" d="M394.91,271.59c0,0-19.89,1.04-23.95-17.41C370.96,254.17,389.26,248.05,394.91,271.59z"/>
	<path class="st0" d="M362.35,256.11c0,0-17.78,6.74-26.83-8.79C335.53,247.25,350.14,236.34,362.35,256.11z"/>
	<path class="st0" d="M390.73,242.85c0,0-15.41,5.2-22.68-8.35C368.08,234.5,380.98,225.6,390.73,242.85z"/>
	<path class="st0" d="M364.59,275.47c0,0-14.69,11.95-28.19,0C336.36,275.47,347,260.62,364.59,275.47z"/>
	<path class="st0" d="M370.26,295.87c0,0-10.77,11.72-23.51,3.66C346.78,299.57,353.64,285.71,370.26,295.87z"/>
	<path class="st0" d="M406.37,217.71c0,0-19.32-4.79-17.88-23.58C388.49,194.13,407.63,193.54,406.37,217.71z"/>
	<path class="st0" d="M432.08,234.5c0,1.93-0.57,3.81-1.65,5.41c-1.07,1.6-2.6,2.85-4.39,3.59c-1.79,0.74-3.75,0.93-5.65,0.55
		c-1.9-0.38-3.64-1.31-5-2.67c-1.37-1.36-2.3-3.1-2.67-4.99c-0.38-1.89-0.18-3.85,0.56-5.63c0.74-1.78,2-3.3,3.6-4.37
		c1.61-1.07,3.5-1.64,5.43-1.63c1.28,0,2.55,0.25,3.74,0.74c1.18,0.49,2.26,1.21,3.17,2.11c0.91,0.9,1.62,1.98,2.11,3.16
		C431.83,231.96,432.09,233.23,432.08,234.5z"/>
</g>
<g>
	<path class="st1" d="M377.72,350.01l47.76-1.96l-40.14-2.4"/>
	<path class="st1" d="M442.08,309.28c0.21-2.82,0.83-5.6,1.85-8.25c2.16-6,5.65-11.44,10.21-15.9c2.46-2.43,5.26-4.47,8.33-6.06
		c1.36-0.81,2.82-1.45,4.33-1.9c1.3-0.55,2.66-0.94,4.06-1.16c2.04-0.48,4.14-0.67,6.23-0.59c1.47,0,2.35,0.09,2.35,0.09l-2.14,0.95
		c-1.85,0.71-3.66,1.52-5.42,2.45c-1.17,0.54-2.3,1.16-3.38,1.86c-1.24,0.68-2.44,1.46-3.57,2.31c-2.51,1.76-4.88,3.72-7.07,5.86
		c-2.24,2.14-4.33,4.42-6.26,6.84c-1.87,2.33-3.53,4.57-5,6.58C443.87,306.38,442.08,309.28,442.08,309.28z"/>
	<path class="st1" d="M381.96,222.33c1.23,0.36,2.43,0.81,3.6,1.35c5.16,2.41,9.9,5.63,14.03,9.55c1.9,1.72,3.66,3.58,5.27,5.57
		c3.58,4.28,6.66,8.95,9.2,13.91c1.12,2.61,2.37,5.16,3.32,7.78c0.95,2.62,1.76,5.23,2.44,7.78c0.68,2.55,1.09,5.08,1.56,7.44
		c0.47,2.36,0.53,4.66,0.73,6.75c0.26,3.36,0.3,6.73,0.12,10.09c-0.09,2.43-0.22,3.81-0.22,3.81s-0.4-1.36-0.93-3.71
		c-0.53-2.34-1.15-5.73-2.32-9.65c-0.51-1.96-1.07-4.09-1.67-6.33c-0.6-2.24-1.47-4.51-2.23-6.91c-0.76-2.4-1.91-4.73-2.76-7.21
		c-0.85-2.48-2.22-4.79-3.31-7.22c-1.09-2.43-2.45-4.7-3.81-6.93c-1.35-2.23-2.64-4.39-4.2-6.41c-2.64-3.73-5.55-7.26-8.7-10.57
		c-2.26-2.4-4.65-4.66-7.18-6.77C383.03,223.15,381.96,222.33,381.96,222.33z"/>
	<path class="st1" d="M438.08,274.84c0,0-0.41,1.46-0.97,3.81c-0.8,3.29-1.42,6.63-1.85,9.99c-0.22,2.08-0.51,4.31-0.59,6.66
		c-0.07,2.36,0,4.83,0,7.32c0.16,2.59,0.47,5.17,0.93,7.72c0.44,2.61,1.15,5.18,2.12,7.65c0.81,2.52,1.88,4.94,3.2,7.23
		c1.28,2.27,2.69,4.47,4.22,6.58c1.47,1.99,3.35,3.68,4.88,5.46c1.57,1.56,3.23,3.02,4.97,4.39c1.39,1.29,2.86,2.48,4.41,3.57
		l3.69,2.52c2.04,1.46,3.2,2.31,3.2,2.31s-1.37-0.42-3.73-1.3l-4.26-1.64c-1.86-0.69-3.64-1.59-5.29-2.69
		c-2.1-1.11-4.09-2.42-5.95-3.91c-2.08-1.68-4.04-3.49-5.88-5.42c-1.65-2.26-3.85-4.28-5.19-6.94c-1.56-2.56-2.85-5.28-3.83-8.11
		c-1.04-2.83-1.78-5.76-2.2-8.74c-0.4-2.84-0.57-5.71-0.5-8.58c0.19-5.04,1.04-10.03,2.54-14.85
		C433.38,283.25,435.44,278.86,438.08,274.84z"/>
	<path class="st1" d="M405.92,274.84c0.8,1.06,1.51,2.17,2.13,3.34c1.72,3.08,3.11,6.32,4.17,9.68c0.75,2.24,1.32,4.54,1.7,6.87
		c0.46,2.62,0.74,5.27,0.82,7.92c0.02,2.87-0.21,5.74-0.71,8.57c-0.29,1.46-0.5,2.93-0.88,4.39l-1.47,4.28
		c-0.85,2.93-2.69,5.37-3.97,8.01c-1.56,2.49-3.56,4.64-5.23,6.85c-1.98,1.95-4.03,3.71-5.88,5.39c-1.87,1.44-3.84,2.76-5.88,3.95
		c-1.62,1.14-3.36,2.08-5.2,2.81l-4.2,1.79c-2.32,0.95-3.66,1.46-3.66,1.46s1.12-0.94,3.1-2.43l3.6-2.64
		c1.56-1.12,3.03-2.35,4.41-3.68c1.47-1.46,3.31-2.8,4.92-4.5l4.89-5.48c1.47-2.11,2.94-4.22,4.32-6.43
		c1.04-2.39,2.66-4.58,3.32-7.16l1.37-3.73c0.37-1.27,0.57-2.58,0.87-3.85c0.53-2.56,0.9-5.15,1.1-7.76c0-2.52,0.26-4.99,0-7.32
		c-0.26-2.33-0.32-4.57-0.62-6.62c-0.46-3.36-1.13-6.69-2.03-9.96C406.38,276.22,405.92,274.84,405.92,274.84z"/>
	<path class="st1" d="M462.12,222.33c0,0-1.13,0.82-3.01,2.31c-2.53,2.1-4.92,4.35-7.17,6.74c-3.15,3.31-6.05,6.84-8.68,10.57
		c-1.56,1.95-2.75,4.25-4.22,6.4c-1.47,2.15-2.57,4.61-3.82,6.94c-1.25,2.33-2.34,4.73-3.31,7.22c-0.97,2.49-1.98,4.82-2.76,7.21
		s-1.47,4.7-2.25,6.91c-0.78,2.21-1.15,4.39-1.67,6.33c-1.16,3.92-1.75,7.32-2.31,9.65c-0.56,2.33-0.93,3.71-0.93,3.71
		s-0.13-1.38-0.22-3.81c-0.2-3.36-0.16-6.73,0.12-10.09c0.21-2.09,0.35-4.39,0.73-6.75c0.38-2.36,0.96-4.86,1.56-7.44
		c0.6-2.58,1.47-5.16,2.44-7.78c0.97-2.62,2.2-5.17,3.32-7.78c2.53-4.96,5.62-9.62,9.21-13.88c1.62-1.98,3.38-3.84,5.27-5.57
		c4.14-3.92,8.9-7.15,14.07-9.55C459.68,223.14,460.88,222.69,462.12,222.33z"/>
	<path class="st1" d="M401.94,309.28c0,0-1.81-2.93-4.58-6.93c-1.47-2.01-3.09-4.29-4.95-6.62c-1.92-2.42-4.01-4.7-6.24-6.84
		c-1.09-1.12-2.25-2.16-3.48-3.12c-1.13-0.99-2.33-1.91-3.58-2.74c-1.14-0.85-2.33-1.62-3.57-2.31c-1.08-0.69-2.21-1.32-3.38-1.86
		c-1.76-0.92-3.57-1.74-5.42-2.45l-2.14-0.95c0,0,0.84,0,2.34-0.09c2.09-0.09,4.19,0.11,6.23,0.59c1.39,0.22,2.76,0.61,4.06,1.16
		c1.54,0.46,3.02,1.1,4.41,1.9c3.06,1.59,5.87,3.63,8.33,6.05c2.44,2.39,4.58,5.07,6.38,7.97c1.54,2.52,2.8,5.2,3.76,8
		C401.1,303.68,401.73,306.46,401.94,309.28z"/>
</g>
</svg>
